<svg id="svg" version="1.1" xmlns="http://www.w3.org/2000/svg" xmlns:xlink="http://www.w3.org/1999/xlink" width="400" height="400" viewBox="0, 0, 400,400"><g id="svgg"><path id="path0" d="M18.667 18.667 C 18.520 18.813,18.400 41.493,18.400 69.067 L 18.400 119.200 28.598 119.200 L 38.796 119.200 38.898 79.100 L 39.000 39.000 79.100 38.898 L 119.200 38.796 119.200 28.598 L 119.200 18.400 69.067 18.400 C 41.493 18.400,18.813 18.520,18.667 18.667 M280.800 28.597 L 280.800 38.796 320.900 38.898 L 361.000 39.000 361.102 79.100 L 361.204 119.200 371.403 119.200 L 381.603 119.200 381.502 68.900 L 381.400 18.600 331.100 18.498 L 280.800 18.397 280.800 28.597 M76.400 119.200 L 76.400 185.200 112.800 185.200 L 149.200 185.200 149.200 119.200 L 149.200 53.200 112.800 53.200 L 76.400 53.200 76.400 119.200 M147.200 119.200 L 147.200 183.200 112.800 183.200 L 78.400 183.200 78.400 119.200 L 78.400 55.200 112.800 55.200 L 147.200 55.200 147.200 119.200 M163.600 164.800 L 163.600 195.600 115.961 195.600 L 68.323 195.600 66.585 194.070 C 61.413 189.518,53.838 192.315,53.285 198.981 C 52.685 206.210,60.843 210.464,66.318 205.777 L 67.927 204.400 115.764 204.400 L 163.600 204.400 163.600 235.200 L 163.600 266.000 200.000 266.000 L 236.400 266.000 236.400 235.200 L 236.400 204.400 284.538 204.400 L 332.676 204.400 333.438 205.243 C 338.053 210.346,346.709 207.187,347.110 200.253 C 347.552 192.584,338.530 188.883,333.230 194.561 L 332.261 195.600 284.330 195.600 L 236.400 195.600 236.400 164.800 L 236.400 134.000 200.000 134.000 L 163.600 134.000 163.600 164.800 M234.400 165.800 L 234.400 195.600 200.000 195.600 L 165.600 195.600 165.600 165.800 L 165.600 136.000 200.000 136.000 L 234.400 136.000 234.400 165.800 M64.272 193.635 C 65.220 194.094,66.305 194.994,66.684 195.635 L 67.372 196.800 200.087 196.800 L 332.802 196.800 334.245 195.203 C 337.679 191.401,343.527 192.314,345.648 196.983 C 348.838 204.006,339.782 210.153,334.410 204.611 L 333.043 203.200 200.220 203.200 L 67.397 203.200 66.211 204.457 C 60.147 210.882,50.209 202.345,55.670 195.402 C 57.592 192.959,61.301 192.197,64.272 193.635 M234.400 234.200 L 234.400 264.000 200.000 264.000 L 165.600 264.000 165.600 234.200 L 165.600 204.400 200.000 204.400 L 234.400 204.400 234.400 234.200 M251.467 214.667 C 251.320 214.813,251.200 244.513,251.200 280.667 L 251.200 346.400 287.600 346.400 L 324.000 346.400 324.000 280.400 L 324.000 214.400 287.867 214.400 C 267.993 214.400,251.613 214.520,251.467 214.667 M322.400 280.400 L 322.400 344.400 287.800 344.400 L 253.200 344.400 253.200 280.400 L 253.200 216.400 287.800 216.400 L 322.400 216.400 322.400 280.400 M18.498 331.100 L 18.600 381.400 68.900 381.502 L 119.200 381.603 119.200 371.403 L 119.200 361.204 79.100 361.102 L 39.000 361.000 38.898 320.900 L 38.796 280.800 28.597 280.800 L 18.397 280.800 18.498 331.100 M361.102 320.900 L 361.000 361.000 320.900 361.102 L 280.800 361.204 280.800 371.402 L 280.800 381.600 331.200 381.600 L 381.600 381.600 381.600 331.200 L 381.600 280.800 371.402 280.800 L 361.204 280.800 361.102 320.900 " stroke="none" fill="#383939" fill-rule="evenodd"></path><path id="path1" d="M253.200 280.400 L 253.200 344.400 287.800 344.400 L 322.400 344.400 322.400 280.400 L 322.400 216.400 287.800 216.400 L 253.200 216.400 253.200 280.400 " stroke="none" fill="#fa0505" fill-rule="evenodd"></path><path id="path2" d="M0.000 200.000 L 0.000 400.000 200.000 400.000 L 400.000 400.000 400.000 200.000 L 400.000 0.000 200.000 0.000 L 0.000 0.000 0.000 200.000 M119.200 28.598 L 119.200 38.796 79.100 38.898 L 39.000 39.000 38.898 79.100 L 38.796 119.200 28.598 119.200 L 18.400 119.200 18.400 69.067 C 18.400 41.493,18.520 18.813,18.667 18.667 C 18.813 18.520,41.493 18.400,69.067 18.400 L 119.200 18.400 119.200 28.598 M381.502 68.900 L 381.603 119.200 371.403 119.200 L 361.204 119.200 361.102 79.100 L 361.000 39.000 320.900 38.898 L 280.800 38.796 280.800 28.597 L 280.800 18.397 331.100 18.498 L 381.400 18.600 381.502 68.900 M149.200 119.200 L 149.200 185.200 112.800 185.200 L 76.400 185.200 76.400 119.200 L 76.400 53.200 112.800 53.200 L 149.200 53.200 149.200 119.200 M236.400 164.800 L 236.400 195.600 284.330 195.600 L 332.261 195.600 333.230 194.561 C 338.530 188.883,347.552 192.584,347.110 200.253 C 346.709 207.187,338.053 210.346,333.438 205.243 L 332.676 204.400 284.538 204.400 L 236.400 204.400 236.400 235.200 L 236.400 266.000 200.000 266.000 L 163.600 266.000 163.600 235.200 L 163.600 204.400 115.764 204.400 L 67.927 204.400 66.318 205.777 C 60.843 210.464,52.685 206.210,53.285 198.981 C 53.838 192.315,61.413 189.518,66.585 194.070 L 68.323 195.600 115.961 195.600 L 163.600 195.600 163.600 164.800 L 163.600 134.000 200.000 134.000 L 236.400 134.000 236.400 164.800 M324.000 280.400 L 324.000 346.400 287.600 346.400 L 251.200 346.400 251.200 280.667 C 251.200 244.513,251.320 214.813,251.467 214.667 C 251.613 214.520,267.993 214.400,287.867 214.400 L 324.000 214.400 324.000 280.400 M38.898 320.900 L 39.000 361.000 79.100 361.102 L 119.200 361.204 119.200 371.403 L 119.200 381.603 68.900 381.502 L 18.600 381.400 18.498 331.100 L 18.397 280.800 28.597 280.800 L 38.796 280.800 38.898 320.900 M381.600 331.200 L 381.600 381.600 331.200 381.600 L 280.800 381.600 280.800 371.402 L 280.800 361.204 320.900 361.102 L 361.000 361.000 361.102 320.900 L 361.204 280.800 371.402 280.800 L 381.600 280.800 381.600 331.200 " stroke="none" fill="#abf3f3" fill-rule="evenodd"></path><path id="path3" d="M165.600 165.800 L 165.600 195.600 200.000 195.600 L 234.400 195.600 234.400 165.800 L 234.400 136.000 200.000 136.000 L 165.600 136.000 165.600 165.800 M165.600 234.200 L 165.600 264.000 200.000 264.000 L 234.400 264.000 234.400 234.200 L 234.400 204.400 200.000 204.400 L 165.600 204.400 165.600 234.200 " stroke="none" fill="#fbfb04" fill-rule="evenodd"></path><path id="path4" d="M78.400 119.200 L 78.400 183.200 112.800 183.200 L 147.200 183.200 147.200 119.200 L 147.200 55.200 112.800 55.200 L 78.400 55.200 78.400 119.200 M58.169 193.559 C 52.889 195.956,52.863 203.633,58.126 206.023 C 61.128 207.385,63.966 206.836,66.211 204.457 L 67.397 203.200 200.220 203.200 L 333.043 203.200 334.410 204.611 C 339.782 210.153,348.838 204.006,345.648 196.983 C 343.527 192.314,337.679 191.401,334.245 195.203 L 332.802 196.800 200.087 196.800 L 67.372 196.800 66.684 195.635 C 65.214 193.146,61.220 192.173,58.169 193.559 " stroke="none" fill="#04ee2b" fill-rule="evenodd"></path></g></svg>